<?xml version="1.0" standalone="no"?>
<!DOCTYPE svg PUBLIC "-//W3C//DTD SVG 20010904//EN"
  "http://www.w3.org/TR/2001/REC-SVG-20010904/DTD/svg10.dtd">
<svg version="1.0" xmlns="http://www.w3.org/2000/svg"
     width="16.000000pt" height="16.000000pt" viewBox="0 0 16.000000 16.000000"
     preserveAspectRatio="xMidYMid meet">
  <metadata>
    Created by potrace 1.11, written by Peter Selinger 2001-2013
  </metadata>
  <g transform="translate(0.000000,16.000000) scale(0.005161,-0.005161)"
     fill="#000000" stroke="none">
    <path d="M0 1550 l0 -1550 1550 0 1550 0 0 1550 0 1550 -1550 0 -1550 0 0
-1550z m904 749 c150 -36 297 -118 381 -211 173 -192 245 -509 171 -752 -79
-262 -215 -412 -453 -502 -71 -27 -178 -52 -238 -56 l-40 -3 -3 45 c-4 64 40
225 89 327 35 72 58 104 128 173 111 111 224 170 399 210 74 17 70 29 -18 45
-52 10 -148 44 -210 75 -188 94 -308 254 -371 490 -15 59 -29 172 -22 183 7
11 85 1 187 -24z m1481 -36 c-16 -151 -82 -319 -171 -435 -88 -113 -245 -206
-422 -248 -51 -13 -90 -26 -85 -30 4 -5 48 -18 98 -30 168 -42 320 -133 410
-248 85 -107 160 -300 167 -432 l3 -65 -60 4 c-116 6 -299 72 -402 143 -198
135 -333 443 -302 688 43 343 218 573 509 669 80 26 183 49 229 50 l33 1 -7
-67z"/>
  </g>
</svg>
