<svg class="logo" viewBox="0 0 394 83" version="1.1" xmlns="http://www.w3.org/2000/svg"
>
  <g stroke="none" stroke-width="1" fill="#FFFFFF" fill-rule="evenodd">
    <g transform="translate(-210.000000, -185.000000)">
      <g transform="translate(-32.000000, -87.000000)">
        <g class="logo_path" transform="translate(203.000000, 233.000000)">
          <path
            d="M148.331261,115.73865 C148.331261,117.683108 150.081274,119.433121 152.025732,119.433121 L198.692739,119.433121 C200.831643,119.433121 202.38721,117.683108 202.38721,115.73865 L202.38721,110.877503 C202.38721,108.738599 200.831643,107.183032 198.692739,107.183032 L168.748076,107.183032 L168.748076,106.599694 L205.887236,46.9048153 C207.442803,44.3770191 205.498344,41.6547771 202.581656,41.6547771 L153.775745,41.6547771 C151.831287,41.6547771 150.27572,43.2103439 150.27572,45.3492484 L150.27572,50.2103949 C150.27572,52.1548535 151.831287,53.9048662 153.775745,53.9048662 L186.44265,53.9048662 L186.44265,54.4882038 L148.331261,113.794191 L148.331261,115.73865 Z M220.470675,80.543949 C220.470675,102.905223 235.054115,121.37758 258.582064,121.37758 C271.998828,121.37758 282.498904,116.127541 287.165605,112.43307 C290.082293,110.294166 289.30451,109.12749 287.943389,107.377478 C286.776713,105.821911 285.804484,104.46079 284.637809,102.905223 C283.082242,100.766318 281.915567,101.738548 279.193325,103.294115 C274.72107,106.016357 268.109911,109.12749 259.943185,109.12749 C246.137529,109.12749 234.665223,96.8774013 233.887439,83.8495287 L289.887847,83.8495287 C291.63786,83.8495287 293.193427,82.4884076 293.387873,80.543949 C293.582318,79.182828 293.776764,76.6550318 293.776764,75.2939108 C293.776764,54.8770955 278.998879,39.7103185 258.582064,39.7103185 C235.054115,39.7103185 220.470675,58.5715669 220.470675,80.543949 L220.470675,80.543949 Z M234.081885,72.9605605 C235.443006,60.9049172 245.554191,51.5715159 258.582064,51.5715159 C270.443261,51.5715159 279.776662,61.6827006 280.36,72.9605605 L234.081885,72.9605605 Z M311.276892,112.627516 C315.554701,115.933096 323.526981,121.37758 336.554854,121.37758 C352.499414,121.37758 363.388382,110.683057 363.388382,99.4051975 C363.388382,85.4050955 351.332739,79.3772739 337.915975,72.9605605 C329.943694,69.0716433 323.526981,66.1549554 323.526981,59.738242 C323.526981,56.4326624 325.860331,51.9604076 334.610395,51.9604076 C341.804892,51.9604076 350.166064,56.6271083 350.166064,56.6271083 C351.916076,57.5993376 354.638318,57.016 355.804994,54.8770955 L357.360561,51.7659618 C358.527236,49.6270573 357.943898,46.9048153 356.193885,45.7381401 C352.499414,43.2103439 344.72158,39.7103185 334.610395,39.7103185 C316.52693,39.7103185 309.915771,51.7659618 309.915771,59.9326879 C309.915771,73.1550064 321.776968,79.9606115 332.082599,85.0162038 C343.360459,90.6551338 349.193834,93.7662675 349.193834,100.571873 C349.193834,105.821911 344.527134,109.905274 336.554854,109.905274 C326.638115,109.905274 318.276943,103.099669 318.276943,103.099669 C316.138038,101.738548 313.999134,102.127439 313.026904,103.683006 C312.443567,104.655236 311.082446,107.377478 310.304662,108.544153 C309.721325,109.905274 310.304662,111.849732 311.276892,112.627516 L311.276892,112.627516 Z M380.499618,112.627516 C384.777427,115.933096 392.749707,121.37758 405.77758,121.37758 C421.72214,121.37758 432.611108,110.683057 432.611108,99.4051975 C432.611108,85.4050955 420.555465,79.3772739 407.138701,72.9605605 C399.16642,69.0716433 392.749707,66.1549554 392.749707,59.738242 C392.749707,56.4326624 395.083057,51.9604076 403.833121,51.9604076 C411.027618,51.9604076 419.38879,56.6271083 419.38879,56.6271083 C421.138803,57.5993376 423.861045,57.016 425.02772,54.8770955 L426.583287,51.7659618 C427.749962,49.6270573 427.166624,46.9048153 425.416611,45.7381401 C421.72214,43.2103439 413.944306,39.7103185 403.833121,39.7103185 C385.749656,39.7103185 379.138497,51.7659618 379.138497,59.9326879 C379.138497,73.1550064 390.999694,79.9606115 401.305325,85.0162038 C412.583185,90.6551338 418.416561,93.7662675 418.416561,100.571873 C418.416561,105.821911 413.74986,109.905274 405.77758,109.905274 C395.860841,109.905274 387.499669,103.099669 387.499669,103.099669 C385.360764,101.738548 383.22186,102.127439 382.249631,103.683006 C381.666293,104.655236 380.305172,107.377478 379.527389,108.544153 C378.944051,109.905274 379.527389,111.849732 380.499618,112.627516 L380.499618,112.627516 Z"
            id="zess"></path>
          <g id="Group"
             transform="translate(80.234797, 79.941803) rotate(-315.000000) translate(-80.234797, -79.941803) translate(23.768609, 24.208943)">
            <path
              d="M54.2019894,111.12514 C54.2019894,111.12514 65.5333887,99.1816199 65.5333887,84.4485411 C65.5333887,69.7154623 54.2019894,57.7719421 54.2019894,57.7719421 C54.2019894,57.7719421 42.8705901,69.7154623 42.8705901,84.4485411 C42.8705901,99.1816199 54.2019894,111.12514 54.2019894,111.12514 Z"></path>
            <path
              d="M27.4839674,69.3082955 C42.2170462,69.3082955 54.1605664,57.8988535 54.1605664,57.8988535 C54.1605664,57.8988535 42.2170462,46.4894115 27.4839674,46.4894115 C12.7508886,46.4894115 0.807368393,57.8988535 0.807368393,57.8988535 C0.807368393,57.8988535 12.7508886,69.3082955 27.4839674,69.3082955 Z"></path>
            <path
              d="M58.350314,53.6310632 C58.350314,53.6310632 69.6817133,41.687543 69.6817133,26.9544642 C69.6817133,12.2213854 58.350314,0.277865155 58.350314,0.277865155 C58.350314,0.277865155 47.0189147,12.2213854 47.0189147,26.9544642 C47.0189147,41.687543 58.350314,53.6310632 58.350314,53.6310632 Z"></path>
            <path
              d="M84.9780443,65.1599709 C99.7111231,65.1599709 111.654643,53.7505289 111.654643,53.7505289 C111.654643,53.7505289 99.7111231,42.3410869 84.9780443,42.3410869 C70.2449655,42.3410869 58.3014453,53.7505289 58.3014453,53.7505289 C58.3014453,53.7505289 70.2449655,65.1599709 84.9780443,65.1599709 Z"></path>
          </g>
        </g>
      </g>
    </g>
  </g>
</svg>