<svg id="Home_Icon" data-name="Home Icon" xmlns="http://www.w3.org/2000/svg" width="15.715" height="18.848" viewBox="0 0 15.715 18.848">
  <path id="Home_Icon-2" data-name="Home Icon" d="M315.715,587.564a1,1,0,0,0-.286-.7l-6.187-6.279a1.952,1.952,0,0,0-2.78-.006l-6.174,6.215a1,1,0,0,0-.289.7v9.578a1.8,1.8,0,0,0,1.964,1.774h2.947a1.8,1.8,0,0,0,1.964-1.774v-.992a.982.982,0,1,1,1.964,0v.992a1.8,1.8,0,0,0,1.964,1.774h2.947a1.8,1.8,0,0,0,1.964-1.774Zm-1.964,8.518c0,.548-.44.782-.982.782h-.982c-.542,0-.982-.234-.982-.782v-.992a2.166,2.166,0,0,0-1.964-2.194h-1.964a2.166,2.166,0,0,0-1.964,2.194v.992c0,.548-.44.782-.982.782h-.982c-.542,0-.982-.234-.982-.782v-8a.5.5,0,0,1,.143-.351l5.046-5.095a.974.974,0,0,1,1.389,0l5.065,5.115a.5.5,0,0,1,.143.35Z" transform="translate(-300 -580)" fill="#fff"/>
</svg>
