<?xml version="1.0" encoding="UTF-8" standalone="no"?>
<svg width="38" height="38" viewBox="0 0 38 38" fill="none" xmlns="http://www.w3.org/2000/svg" xmlns:xlink="http://www.w3.org/1999/xlink">
<path d="M34.2 3.8V1.9C34.2 0.76 33.44 0 32.3 0C31.16 0 30.4 0.76 30.4 1.9V3.8H20.9V1.9C20.9 0.76 20.14 0 19 0C17.86 0 17.1 0.76 17.1 1.9V3.8H7.6V1.9C7.6 0.76 6.84 0 5.7 0C4.56 0 3.8 0.76 3.8 1.9V3.8C1.71 3.8 0 5.51 0 7.6V34.2C0 36.29 1.71 38 3.8 38H34.2C36.29 38 38 36.29 38 34.2V7.6C38 5.51 36.29 3.8 34.2 3.8ZM34.2 32.3C34.2 33.44 33.44 34.2 32.3 34.2H5.7C4.56 34.2 3.8 33.44 3.8 32.3V13.3C3.8 12.16 4.56 11.4 5.7 11.4H32.3C33.44 11.4 34.2 12.16 34.2 13.3V32.3Z" fill="#FFFFFF"/>
<g clip-path="url(#clip0)">
<path d="M27.8482 17.5448C28.2131 17.9341 28.2082 18.5413 27.8369 18.9246L17.4453 29.6514C17.0497 30.0597 16.3937 30.0565 16.0021 29.6443L10.15 23.4843C9.78509 23.1002 9.78309 22.4981 10.1455 22.1116L11.6284 20.5297C12.0205 20.1115 12.6833 20.1079 13.08 20.5218L16.0057 23.5748C16.3965 23.9825 17.0471 23.986 17.4422 23.5825L24.9198 15.9458C25.3179 15.5392 25.9746 15.5463 26.3638 15.9615L27.8482 17.5448Z" fill="#FFFFFF"/>
</g>
<defs>
<clipPath id="clip0">
<rect x="9.5" y="15.2001" width="19" height="15.2" fill="white"/>
</clipPath>
</defs>
</svg>
