<svg xmlns="http://www.w3.org/2000/svg" width="18.657" height="18.657" viewBox="0 0 18.657 18.657">
  <path id="Recipe_Icon" data-name="Recipe Icon" d="M-166.94,943.887a5.554,5.554,0,0,0-3.208,1.017.909.909,0,0,1-1.047,0,5.554,5.554,0,0,0-3.208-1.017c-3.091,0-5.6,3.439-5.6,6.53s2.506,8.24,5.6,8.24c1.895,0,2.152-1.2,3.731-1.2s1.856,1.2,3.731,1.2c3.091,0,5.6-5.149,5.6-8.24S-163.849,943.887-166.94,943.887Zm0,12.9a2.108,2.108,0,0,1-1.174-.419,4.517,4.517,0,0,0-2.557-.783,4.517,4.517,0,0,0-2.557.783,2.108,2.108,0,0,1-1.174.419c-1.535,0-3.731-3.753-3.731-6.374,0-2.1,1.722-4.664,3.731-4.664a3.723,3.723,0,0,1,2.486.956,1.863,1.863,0,0,0,2.491,0,3.723,3.723,0,0,1,2.486-.956c2.009,0,3.731,2.564,3.731,4.664C-163.209,953.038-165.406,956.791-166.94,956.791Zm-6.835-14.087a2.538,2.538,0,0,1-.411-2.55,2.534,2.534,0,0,1,2.55.411,3.645,3.645,0,0,1,.748,2.886A3.642,3.642,0,0,1-173.775,942.7Z" transform="translate(180 -940)" fill="#fff"/>
</svg>
